<svg width="54" height="54" viewBox="0 0 54 54" fill="none" xmlns="http://www.w3.org/2000/svg">
<path d="M3.95285 38.3357C3.16363 38.3357 2.42253 38.0277 1.8643 37.4714C1.30606 36.9151 1 36.1721 1 35.3828C1 34.5936 1.30799 33.8525 1.86622 33.2943L15.0636 20.0951C15.5987 19.5599 16.359 19.252 17.1521 19.252C17.9452 19.252 18.7055 19.558 19.2407 20.0932L32.4419 33.2924C33.0001 33.8506 33.3081 34.5917 33.3081 35.3809C33.3081 36.1701 33.0001 36.9112 32.4419 37.4695C31.8836 38.0277 31.1425 38.3338 30.3533 38.3338C29.5641 38.3338 28.823 38.0258 28.2648 37.4695L17.1521 26.3588L6.0414 37.4695C5.4851 38.0277 4.74207 38.3338 3.95285 38.3338V38.3357Z" fill="#443087"/>
<path d="M30.3518 37.3737C29.8417 37.3737 29.3335 37.1793 28.9447 36.7904L17.1506 24.9983L5.3604 36.7904C4.58465 37.5681 3.32382 37.5681 2.54615 36.7904C1.76847 36.0128 1.76847 34.7539 2.54615 33.9762L15.7435 20.7769C16.4904 20.0301 17.8128 20.0301 18.5577 20.7769L31.7589 33.9762C32.5366 34.7539 32.5366 36.0128 31.7589 36.7904C31.3701 37.1793 30.86 37.3737 30.3518 37.3737Z" fill="#443087"/>
<path d="M49.8071 39C48.8407 39 47.9322 38.6246 47.2507 37.9413L33.0389 23.7315L18.8329 37.9413C18.1496 38.6246 17.241 39 16.2747 39C15.3084 39 14.4017 38.6246 13.7184 37.9413C12.3074 36.5303 12.3074 34.2358 13.7184 32.8268L30.4807 16.0587C31.1641 15.3754 32.0726 15 33.0389 15C34.0053 15 34.9138 15.3754 35.5953 16.0587L52.3634 32.8268C53.0467 33.5101 53.4221 34.4167 53.4221 35.3831C53.4221 36.3494 53.0448 37.2579 52.3634 37.9413C51.6819 38.6246 50.7734 39 49.8071 39Z" fill="#49BDD8"/>
<path d="M49.8065 38.038C49.127 38.038 48.4474 37.7781 47.9296 37.2603L33.0384 22.371L18.1509 37.2603C17.1134 38.2978 15.4348 38.2959 14.3973 37.2603C13.3598 36.2228 13.3598 34.5442 14.3973 33.5067L31.1615 16.7406C31.6601 16.242 32.3338 15.9629 33.0384 15.9629C33.7429 15.9629 34.4166 16.242 34.9152 16.7406L51.6833 33.5086C52.7208 34.5442 52.7208 36.2247 51.6833 37.2622C51.1655 37.78 50.486 38.0399 49.8065 38.0399V38.038Z" fill="#49BDD8"/>
</svg>
